<svg width="40" height="40" viewBox="0 0 40 40" fill="none" xmlns="http://www.w3.org/2000/svg">
<path d="M35.7143 0H4.28571C1.91964 0 0 1.91964 0 4.28571V35.7143C0 38.0804 1.91964 40 4.28571 40H35.7143C38.0804 40 40 38.0804 40 35.7143V4.28571C40 1.91964 38.0804 0 35.7143 0ZM21.4286 25.7143H17.1429V30C17.1429 30.7857 16.5 31.4286 15.7143 31.4286H12.8571C12.0714 31.4286 11.4286 30.7857 11.4286 30V10C11.4286 9.21429 12.0714 8.57143 12.8571 8.57143H21.4286C26.1518 8.57143 30 12.4196 30 17.1429C30 21.8661 26.1518 25.7143 21.4286 25.7143ZM21.4286 14.2857H17.1429V20H21.4286C23 20 24.2857 18.7143 24.2857 17.1429C24.2857 15.5714 23 14.2857 21.4286 14.2857Z" fill="url(#paint0_linear_148_48)"/>
<defs>
<linearGradient id="paint0_linear_148_48" x1="20" y1="0" x2="20" y2="40" gradientUnits="userSpaceOnUse">
<stop stop-color="#0F31E9"/>
<stop offset="1" stop-color="#23D6E1"/>
</linearGradient>
</defs>
</svg>
