<svg width="1252" height="46" viewBox="0 0 1252 46" fill="none" xmlns="http://www.w3.org/2000/svg">
<path d="M35.7143 3H4.28571C1.91964 3 0 4.91964 0 7.28571V38.7143C0 41.0804 1.91964 43 4.28571 43H35.7143C38.0804 43 40 41.0804 40 38.7143V7.28571C40 4.91964 38.0804 3 35.7143 3ZM21.4286 28.7143H17.1429V33C17.1429 33.7857 16.5 34.4286 15.7143 34.4286H12.8571C12.0714 34.4286 11.4286 33.7857 11.4286 33V13C11.4286 12.2143 12.0714 11.5714 12.8571 11.5714H21.4286C26.1518 11.5714 30 15.4196 30 20.1429C30 24.8661 26.1518 28.7143 21.4286 28.7143ZM21.4286 17.2857H17.1429V23H21.4286C23 23 24.2857 21.7143 24.2857 20.1429C24.2857 18.5714 23 17.2857 21.4286 17.2857Z" fill="url(#paint0_linear_160_46)"/>
<path d="M43.9336 24.3281C43.9336 23.1211 44.2266 22.0254 44.8125 21.041C45.4102 20.0566 46.207 19.2715 47.2031 18.6855C48.1992 18.0879 49.3008 17.7891 50.5078 17.7891H60.668V36H56.959V21.498H50.5078C49.7227 21.498 49.0488 21.7793 48.4863 22.3418C47.9238 22.8926 47.6426 23.5664 47.6426 24.3633V29.3906C47.6426 30.1875 47.9238 30.873 48.4863 31.4473C49.0488 32.0098 49.7227 32.291 50.5078 32.291H54.8496V36H50.5078C49.3008 36 48.1992 35.707 47.2031 35.1211C46.207 34.5234 45.4102 33.7266 44.8125 32.7305C44.2266 31.7344 43.9336 30.6328 43.9336 29.4258V24.3281ZM64.8867 22.8867C64.8867 21.9492 65.1211 21.0938 65.5898 20.3203C66.0703 19.5469 66.7031 18.9316 67.4883 18.4746C68.2852 18.0176 69.1641 17.7891 70.125 17.7891H74.1855V21.4805H70.125C69.7031 21.4805 69.3398 21.627 69.0352 21.9199C68.7422 22.2012 68.5957 22.5469 68.5957 22.957V36H64.8867V22.8867ZM77.543 11.0039H81.252V24.7676H82.5L89.0918 17.7891H93.9082L85.5938 26.6133L94.6465 36H89.4609L82.166 28.4766H81.252V36H77.543V11.0039ZM96.8789 12.832C96.8789 12.1992 97.1016 11.6602 97.5469 11.2148C97.9922 10.7695 98.5312 10.5469 99.1641 10.5469C99.7969 10.5469 100.336 10.7695 100.781 11.2148C101.227 11.6602 101.449 12.1992 101.449 12.832C101.449 13.4648 101.227 14.0039 100.781 14.4492C100.336 14.8945 99.7969 15.1172 99.1641 15.1172C98.5312 15.1172 97.9922 14.8945 97.5469 14.4492C97.1016 14.0039 96.8789 13.4648 96.8789 12.832ZM97.3008 17.7891H101.027V36H97.3008V17.7891ZM105.246 21.4805C105.246 20.4609 105.609 19.5938 106.336 18.8789C107.074 18.1523 107.959 17.7891 108.99 17.7891H115.406C116.613 17.7891 117.715 18.0879 118.711 18.6855C119.707 19.2715 120.498 20.0625 121.084 21.0586C121.682 22.0547 121.98 23.1562 121.98 24.3633V36H118.271V24.416C118.271 23.5957 117.99 22.8984 117.428 22.3242C116.877 21.75 116.203 21.4629 115.406 21.4629H108.955V36H105.246V21.4805ZM126.023 24.3281C126.023 23.1211 126.316 22.0254 126.902 21.041C127.5 20.0566 128.297 19.2715 129.293 18.6855C130.289 18.0879 131.391 17.7891 132.598 17.7891H139.049C140.068 17.7891 140.941 18.1523 141.668 18.8789C142.395 19.6055 142.758 20.4785 142.758 21.498V36.2109C142.758 37.418 142.459 38.5195 141.861 39.5156C141.275 40.5117 140.484 41.3027 139.488 41.8887C138.492 42.4863 137.391 42.7852 136.184 42.7852H127.201V39.0762H136.131C136.939 39.0762 137.625 38.7949 138.188 38.2324C138.762 37.6816 139.049 37.0137 139.049 36.2285V21.498H132.598C131.812 21.498 131.139 21.7793 130.576 22.3418C130.014 22.8926 129.732 23.5664 129.732 24.3633V29.4082C129.732 30.1934 130.014 30.873 130.576 31.4473C131.139 32.0098 131.812 32.291 132.598 32.291H136.939V36H132.598C131.391 36 130.289 35.707 129.293 35.1211C128.297 34.5234 127.5 33.7324 126.902 32.748C126.316 31.752 126.023 30.6504 126.023 29.4434V24.3281ZM157.523 17.0508C157.523 15.9375 157.799 14.9238 158.35 14.0098C158.912 13.0957 159.662 12.3691 160.6 11.8301C161.549 11.2793 162.592 11.0039 163.729 11.0039H176.666V14.6953H163.729C163.049 14.6953 162.463 14.9355 161.971 15.416C161.479 15.8965 161.232 16.4766 161.232 17.1562V18.8789C161.232 19.5 161.479 20.0332 161.971 20.4785C162.463 20.9238 163.049 21.1465 163.729 21.1465H171.691C172.84 21.1465 173.883 21.4219 174.82 21.9727C175.758 22.5117 176.502 23.2441 177.053 24.1699C177.615 25.084 177.896 26.0977 177.896 27.2109V29.9355C177.896 31.0488 177.615 32.0684 177.053 32.9941C176.502 33.9082 175.758 34.6406 174.82 35.1914C173.883 35.7305 172.84 36 171.691 36H157.541V32.291H171.691C172.383 32.291 172.969 32.0625 173.449 31.6055C173.941 31.1367 174.188 30.5742 174.188 29.918V27.2285C174.188 26.5723 173.941 26.0098 173.449 25.541C172.969 25.0723 172.383 24.8379 171.691 24.8379H163.729C162.592 24.8379 161.549 24.5742 160.6 24.0469C159.662 23.5078 158.912 22.7871 158.35 21.8848C157.799 20.9824 157.523 19.9863 157.523 18.8965V17.0508ZM185.016 17.7891L189.744 30.4102L194.578 17.7891H198.674L189.006 42.8555H184.945L187.775 35.4023L181.078 17.7891H185.016ZM201.328 22.9043C201.328 21.9551 201.562 21.0938 202.031 20.3203C202.512 19.5469 203.145 18.9316 203.93 18.4746C204.727 18.0176 205.605 17.7891 206.566 17.7891H217.254V21.498H206.566C206.145 21.498 205.781 21.6387 205.477 21.9199C205.184 22.1895 205.037 22.5176 205.037 22.9043V23.3438C205.037 23.7422 205.184 24.082 205.477 24.3633C205.781 24.6445 206.145 24.7852 206.566 24.7852H213.211C214.172 24.7852 215.045 25.0195 215.83 25.4883C216.627 25.9453 217.26 26.5605 217.729 27.334C218.197 28.1074 218.432 28.9688 218.432 29.918V30.8672C218.432 31.8047 218.197 32.666 217.729 33.4512C217.26 34.2246 216.627 34.8457 215.83 35.3145C215.045 35.7715 214.172 36 213.211 36H202.154V32.291H213.211C213.633 32.291 213.99 32.1504 214.283 31.8691C214.588 31.5879 214.74 31.248 214.74 30.8496V29.9355C214.74 29.5254 214.588 29.1797 214.283 28.8984C213.99 28.6172 213.633 28.4766 213.211 28.4766H206.566C205.605 28.4766 204.727 28.248 203.93 27.791C203.145 27.3223 202.512 26.7012 202.031 25.9277C201.562 25.1426 201.328 24.2812 201.328 23.3438V22.9043ZM221.438 17.7891H223.811V11.0039H227.52V17.7891H233.127V21.498H227.52V30.832C227.52 31.2305 227.672 31.5762 227.977 31.8691C228.293 32.1504 228.668 32.291 229.102 32.291H233.127V36H229.049C228.088 36 227.209 35.7715 226.412 35.3145C225.627 34.8457 224.994 34.2246 224.514 33.4512C224.045 32.666 223.811 31.7988 223.811 30.8496V21.498H221.438V17.7891ZM236.484 21.5508C236.484 20.5078 236.865 19.623 237.627 18.8965C238.389 18.1582 239.303 17.7891 240.369 17.7891H247.963C248.936 17.7891 249.814 18.0293 250.6 18.5098C251.396 18.9785 252.029 19.6172 252.498 20.4258C252.979 21.2227 253.219 22.1074 253.219 23.0801V23.5898C253.219 24.5508 252.979 25.4297 252.498 26.2266C252.029 27.0117 251.396 27.6445 250.6 28.125C249.814 28.5938 248.936 28.8281 247.963 28.8281H242.303V25.1367H247.998C248.42 25.1367 248.777 24.9844 249.07 24.6797C249.375 24.375 249.527 24.0059 249.527 23.5723V23.0801C249.527 22.6348 249.375 22.2598 249.07 21.9551C248.777 21.6504 248.42 21.498 247.998 21.498H240.193V30.8496C240.193 31.248 240.328 31.5879 240.598 31.8691C240.867 32.1504 241.195 32.291 241.582 32.291H251.936V36H241.582C240.645 36 239.789 35.7715 239.016 35.3145C238.242 34.8457 237.627 34.2246 237.17 33.4512C236.713 32.666 236.484 31.8047 236.484 30.8672V21.5508ZM257.262 21.498C257.262 20.4785 257.625 19.6055 258.352 18.8789C259.078 18.1523 259.957 17.7891 260.988 17.7891H266.543C268.043 17.7891 269.273 18.2578 270.234 19.1953C271.172 18.2578 272.402 17.7891 273.926 17.7891H276.668C277.875 17.7891 278.977 18.0879 279.973 18.6855C280.969 19.2715 281.76 20.0625 282.346 21.0586C282.943 22.043 283.242 23.1387 283.242 24.3457V36H279.551V24.3984C279.551 23.5898 279.27 22.9043 278.707 22.3418C278.145 21.7676 277.465 21.4805 276.668 21.4805H273.926C273.41 21.4805 272.971 21.6445 272.607 21.9727C272.244 22.2891 272.062 22.6758 272.062 23.1328V36H268.354V23.1328C268.354 22.6758 268.178 22.2891 267.826 21.9727C267.475 21.6445 267.047 21.4805 266.543 21.4805H260.971V36H257.262V21.498Z" fill="#0E1D69"/>
<path d="M937.768 26.6V32H935.728V16.952H940.84C942.968 16.952 944.488 17.32 945.4 18.056C946.328 18.776 946.792 19.976 946.792 21.656C946.792 22.968 946.496 24.016 945.904 24.8C945.328 25.568 944.448 26.088 943.264 26.36L947.2 32H944.752L941.104 26.6H937.768ZM944.728 21.656C944.728 20.632 944.432 19.904 943.84 19.472C943.248 19.024 942.248 18.8 940.84 18.8H937.768V24.8H940.84C942.216 24.8 943.208 24.552 943.816 24.056C944.424 23.56 944.728 22.76 944.728 21.656ZM958.246 29.696V31.352C957.83 31.576 957.214 31.776 956.398 31.952C955.598 32.112 954.782 32.192 953.95 32.192C952.094 32.192 950.766 31.712 949.966 30.752C949.166 29.792 948.766 28.208 948.766 26C948.766 23.872 949.182 22.328 950.014 21.368C950.846 20.392 952.174 19.904 953.998 19.904C955.694 19.904 956.91 20.288 957.646 21.056C958.382 21.808 958.75 23.072 958.75 24.848C958.75 25.168 958.742 25.464 958.726 25.736C958.71 26.008 958.678 26.336 958.63 26.72H950.758C950.774 28.032 951.038 28.968 951.55 29.528C952.078 30.088 952.982 30.368 954.262 30.368C954.95 30.368 955.67 30.304 956.422 30.176C957.174 30.048 957.782 29.888 958.246 29.696ZM956.95 24.584C956.934 23.528 956.702 22.784 956.254 22.352C955.806 21.904 955.054 21.68 953.998 21.68C952.814 21.68 951.974 21.936 951.478 22.448C950.998 22.944 950.758 23.824 950.758 25.088H956.926C956.926 25.056 956.926 24.984 956.926 24.872C956.942 24.744 956.95 24.648 956.95 24.584ZM966.119 35.888C965.319 35.888 964.567 35.832 963.863 35.72C963.175 35.624 962.607 35.488 962.159 35.312V33.56C962.527 33.704 963.063 33.824 963.767 33.92C964.487 34.016 965.199 34.064 965.903 34.064C967.103 34.064 967.935 33.824 968.399 33.344C968.863 32.88 969.095 32.048 969.095 30.848V30.104C968.503 30.456 967.871 30.728 967.199 30.92C966.527 31.096 965.847 31.184 965.159 31.184C963.575 31.184 962.439 30.744 961.751 29.864C961.079 28.984 960.743 27.544 960.743 25.544C960.743 23.512 961.175 22.064 962.039 21.2C962.919 20.336 964.407 19.904 966.503 19.904C967.255 19.904 968.063 19.952 968.927 20.048C969.791 20.128 970.503 20.232 971.063 20.36V30.296C971.063 32.376 970.695 33.824 969.959 34.64C969.223 35.472 967.943 35.888 966.119 35.888ZM966.503 21.68C964.967 21.68 963.951 21.944 963.455 22.472C962.959 23 962.711 24.024 962.711 25.544C962.711 26.984 962.919 27.984 963.335 28.544C963.767 29.088 964.591 29.36 965.807 29.36C966.335 29.36 966.879 29.288 967.439 29.144C968.015 28.984 968.567 28.768 969.095 28.496V21.944C968.711 21.864 968.295 21.8 967.847 21.752C967.415 21.704 966.967 21.68 966.503 21.68ZM976.249 18.08H974.137V16.04H976.249V18.08ZM976.177 32H974.209V20.144H976.177V32ZM983.422 21.68C982.398 21.68 981.686 21.8 981.286 22.04C980.902 22.28 980.71 22.768 980.71 23.504C980.71 23.888 980.798 24.184 980.974 24.392C981.166 24.584 981.462 24.712 981.862 24.776L984.91 25.232C985.87 25.376 986.542 25.68 986.926 26.144C987.31 26.592 987.502 27.304 987.502 28.28C987.502 29.656 987.174 30.656 986.518 31.28C985.862 31.888 984.774 32.192 983.254 32.192C982.342 32.192 981.494 32.144 980.71 32.048C979.926 31.952 979.278 31.824 978.766 31.664V29.816C979.278 29.976 979.902 30.112 980.638 30.224C981.39 30.32 982.158 30.368 982.942 30.368C983.934 30.368 984.614 30.224 984.982 29.936C985.35 29.648 985.534 29.136 985.534 28.4C985.534 27.936 985.43 27.6 985.222 27.392C985.014 27.168 984.638 27.016 984.094 26.936L981.046 26.48C980.278 26.368 979.702 26.072 979.318 25.592C978.95 25.112 978.758 24.416 978.742 23.504C978.742 22.256 979.11 21.344 979.846 20.768C980.598 20.192 981.75 19.904 983.302 19.904C983.942 19.904 984.518 19.92 985.03 19.952C985.558 19.984 986.11 20.048 986.686 20.144V21.896C986.27 21.832 985.782 21.784 985.222 21.752C984.662 21.704 984.062 21.68 983.422 21.68ZM996.732 30.152V31.808C996.476 31.92 996.124 32.008 995.676 32.072C995.244 32.152 994.828 32.192 994.428 32.192C992.988 32.192 991.956 31.872 991.332 31.232C990.724 30.592 990.42 29.488 990.42 27.92V21.824H988.644V20.144H990.444L990.756 17.264H992.388V20.144H996.612V21.824H992.388V27.848C992.388 28.824 992.564 29.488 992.916 29.84C993.284 30.192 993.924 30.368 994.836 30.368C995.124 30.368 995.452 30.344 995.82 30.296C996.204 30.248 996.508 30.2 996.732 30.152ZM1007.44 29.696V31.352C1007.03 31.576 1006.41 31.776 1005.59 31.952C1004.79 32.112 1003.98 32.192 1003.15 32.192C1001.29 32.192 999.961 31.712 999.161 30.752C998.361 29.792 997.961 28.208 997.961 26C997.961 23.872 998.377 22.328 999.209 21.368C1000.04 20.392 1001.37 19.904 1003.19 19.904C1004.89 19.904 1006.11 20.288 1006.84 21.056C1007.58 21.808 1007.95 23.072 1007.95 24.848C1007.95 25.168 1007.94 25.464 1007.92 25.736C1007.91 26.008 1007.87 26.336 1007.83 26.72H999.953C999.969 28.032 1000.23 28.968 1000.75 29.528C1001.27 30.088 1002.18 30.368 1003.46 30.368C1004.15 30.368 1004.87 30.304 1005.62 30.176C1006.37 30.048 1006.98 29.888 1007.44 29.696ZM1006.15 24.584C1006.13 23.528 1005.9 22.784 1005.45 22.352C1005 21.904 1004.25 21.68 1003.19 21.68C1002.01 21.68 1001.17 21.936 1000.67 22.448C1000.19 22.944 999.953 23.824 999.953 25.088H1006.12C1006.12 25.056 1006.12 24.984 1006.12 24.872C1006.14 24.744 1006.15 24.648 1006.15 24.584ZM1012.46 32H1010.49V20.144H1012.29L1012.39 21.152H1012.48C1013.11 20.784 1013.73 20.512 1014.35 20.336C1014.98 20.144 1015.59 20.048 1016.2 20.048C1016.46 20.048 1016.63 20.048 1016.71 20.048C1016.8 20.048 1016.87 20.056 1016.92 20.072V21.968C1016.81 21.936 1016.67 21.92 1016.49 21.92C1016.33 21.904 1016.07 21.896 1015.72 21.896C1015.15 21.896 1014.58 21.968 1014.02 22.112C1013.47 22.24 1012.95 22.44 1012.46 22.712V32Z" fill="#0B081C"/>
<rect x="1050" width="130" height="46" rx="5" fill="url(#paint1_linear_160_46)"/>
<path d="M1097.94 30.08V32H1088.73V16.952H1090.77V30.08H1097.94ZM1110.2 26.048C1110.2 28.288 1109.79 29.872 1108.96 30.8C1108.14 31.728 1106.73 32.192 1104.73 32.192C1102.67 32.192 1101.24 31.744 1100.44 30.848C1099.64 29.952 1099.24 28.352 1099.24 26.048C1099.24 23.792 1099.64 22.208 1100.46 21.296C1101.29 20.368 1102.72 19.904 1104.73 19.904C1106.8 19.904 1108.22 20.352 1109 21.248C1109.8 22.144 1110.2 23.744 1110.2 26.048ZM1101.2 26.024C1101.2 27.784 1101.44 28.952 1101.9 29.528C1102.36 30.088 1103.31 30.368 1104.73 30.368C1106.11 30.368 1107.04 30.072 1107.52 29.48C1108 28.872 1108.24 27.72 1108.24 26.024C1108.24 24.264 1108 23.104 1107.54 22.544C1107.09 21.968 1106.16 21.68 1104.73 21.68C1103.34 21.68 1102.4 21.976 1101.92 22.568C1101.44 23.16 1101.2 24.312 1101.2 26.024ZM1117.64 35.888C1116.84 35.888 1116.09 35.832 1115.39 35.72C1114.7 35.624 1114.13 35.488 1113.68 35.312V33.56C1114.05 33.704 1114.59 33.824 1115.29 33.92C1116.01 34.016 1116.72 34.064 1117.43 34.064C1118.63 34.064 1119.46 33.824 1119.92 33.344C1120.39 32.88 1120.62 32.048 1120.62 30.848V30.104C1120.03 30.456 1119.39 30.728 1118.72 30.92C1118.05 31.096 1117.37 31.184 1116.68 31.184C1115.1 31.184 1113.96 30.744 1113.27 29.864C1112.6 28.984 1112.27 27.544 1112.27 25.544C1112.27 23.512 1112.7 22.064 1113.56 21.2C1114.44 20.336 1115.93 19.904 1118.03 19.904C1118.78 19.904 1119.59 19.952 1120.45 20.048C1121.31 20.128 1122.03 20.232 1122.59 20.36V30.296C1122.59 32.376 1122.22 33.824 1121.48 34.64C1120.75 35.472 1119.47 35.888 1117.64 35.888ZM1118.03 21.68C1116.49 21.68 1115.47 21.944 1114.98 22.472C1114.48 23 1114.23 24.024 1114.23 25.544C1114.23 26.984 1114.44 27.984 1114.86 28.544C1115.29 29.088 1116.11 29.36 1117.33 29.36C1117.86 29.36 1118.4 29.288 1118.96 29.144C1119.54 28.984 1120.09 28.768 1120.62 28.496V21.944C1120.23 21.864 1119.82 21.8 1119.37 21.752C1118.94 21.704 1118.49 21.68 1118.03 21.68ZM1127.77 18.08H1125.66V16.04H1127.77V18.08ZM1127.7 32H1125.73V20.144H1127.7V32ZM1132.83 32H1130.87V20.144H1132.57L1132.67 21.296H1132.74C1133.38 20.816 1134.04 20.464 1134.73 20.24C1135.43 20.016 1136.22 19.904 1137.08 19.904C1138.39 19.904 1139.39 20.232 1140.06 20.888C1140.75 21.544 1141.09 22.512 1141.09 23.792V32H1139.12V24.032C1139.12 23.232 1138.9 22.64 1138.45 22.256C1138 21.872 1137.31 21.68 1136.39 21.68C1135.81 21.68 1135.22 21.776 1134.61 21.968C1134.02 22.144 1133.43 22.408 1132.83 22.76V32Z" fill="#0B081C"/>
<path d="M1217 33V29.6667H1247V33H1217ZM1217 24.6667V21.3333H1247V24.6667H1217ZM1217 16.3333V13H1247V16.3333H1217Z" fill="#0B081C"/>
<defs>
<linearGradient id="paint0_linear_160_46" x1="20" y1="3" x2="20" y2="43" gradientUnits="userSpaceOnUse">
<stop stop-color="#0F31E9"/>
<stop offset="1" stop-color="#23D6E1"/>
</linearGradient>
<linearGradient id="paint1_linear_160_46" x1="1115" y1="0" x2="1115" y2="46" gradientUnits="userSpaceOnUse">
<stop stop-color="#0F31E9"/>
<stop offset="0.579753" stop-color="#23D6E1"/>
</linearGradient>
</defs>
</svg>
