<svg width="267" height="44" viewBox="0 0 267 44" fill="none" xmlns="http://www.w3.org/2000/svg">
<rect width="265.75" height="44" transform="translate(0.5)" fill="#23D6E1"/>
<path d="M76.871 31L71.447 15.952H74.663L77.495 24.424C77.639 24.856 77.807 25.44 77.999 26.176C78.207 26.896 78.423 27.712 78.647 28.624C78.871 27.696 79.079 26.872 79.271 26.152C79.479 25.432 79.647 24.864 79.775 24.448L82.607 15.952H85.727L80.303 31H76.871ZM95.4144 28.096V30.352C95.0144 30.592 94.3824 30.8 93.5184 30.976C92.6704 31.136 91.7824 31.216 90.8544 31.216C88.9664 31.216 87.6064 30.736 86.7744 29.776C85.9584 28.816 85.5504 27.232 85.5504 25.024C85.5504 22.896 85.9824 21.344 86.8464 20.368C87.7104 19.392 89.0784 18.904 90.9504 18.904C92.7584 18.904 94.0384 19.28 94.7904 20.032C95.5424 20.784 95.9184 22.072 95.9184 23.896C95.9184 24.232 95.9104 24.544 95.8944 24.832C95.8784 25.104 95.8464 25.488 95.7984 25.984H88.3584C88.3744 26.976 88.5904 27.672 89.0064 28.072C89.4384 28.472 90.1984 28.672 91.2864 28.672C92.0064 28.672 92.7504 28.616 93.5184 28.504C94.2864 28.392 94.9184 28.256 95.4144 28.096ZM90.9504 21.328C89.9744 21.328 89.2944 21.52 88.9104 21.904C88.5424 22.288 88.3584 22.984 88.3584 23.992H93.3744V23.488C93.3584 22.672 93.1744 22.112 92.8224 21.808C92.4704 21.488 91.8464 21.328 90.9504 21.328ZM100.815 31H98.0309V15.04H100.815V20.032C101.487 19.664 102.159 19.384 102.831 19.192C103.503 19 104.151 18.904 104.775 18.904C106.103 18.904 107.095 19.232 107.751 19.888C108.423 20.528 108.759 21.496 108.759 22.792V31H105.975V23.152C105.975 22.544 105.807 22.104 105.471 21.832C105.151 21.544 104.631 21.4 103.911 21.4C103.415 21.4 102.895 21.456 102.351 21.568C101.807 21.68 101.295 21.832 100.815 22.024V31ZM114.153 17.464H111.201V15.04H114.153V17.464ZM114.081 31H111.297V19.144H114.081V31ZM125.231 28V30.328C124.815 30.568 124.191 30.776 123.359 30.952C122.543 31.128 121.695 31.216 120.815 31.216C119.119 31.216 117.927 30.76 117.239 29.848C116.551 28.936 116.207 27.336 116.207 25.048C116.207 22.792 116.647 21.208 117.527 20.296C118.423 19.368 119.959 18.904 122.135 18.904C122.663 18.904 123.135 18.92 123.551 18.952C123.983 18.968 124.439 19.008 124.919 19.072V21.544C124.295 21.496 123.751 21.464 123.287 21.448C122.823 21.416 122.439 21.4 122.135 21.4C120.823 21.4 119.967 21.632 119.567 22.096C119.183 22.56 118.991 23.544 118.991 25.048C118.991 26.504 119.143 27.464 119.447 27.928C119.767 28.392 120.423 28.624 121.415 28.624C122.071 28.624 122.743 28.568 123.431 28.456C124.135 28.328 124.735 28.176 125.231 28ZM129.877 15.04V31H127.093V15.04H129.877ZM141.844 28.096V30.352C141.444 30.592 140.812 30.8 139.948 30.976C139.1 31.136 138.212 31.216 137.284 31.216C135.396 31.216 134.036 30.736 133.204 29.776C132.388 28.816 131.98 27.232 131.98 25.024C131.98 22.896 132.412 21.344 133.276 20.368C134.14 19.392 135.508 18.904 137.38 18.904C139.188 18.904 140.468 19.28 141.22 20.032C141.972 20.784 142.348 22.072 142.348 23.896C142.348 24.232 142.34 24.544 142.324 24.832C142.308 25.104 142.276 25.488 142.228 25.984H134.788C134.804 26.976 135.02 27.672 135.436 28.072C135.868 28.472 136.628 28.672 137.716 28.672C138.436 28.672 139.18 28.616 139.948 28.504C140.716 28.392 141.348 28.256 141.844 28.096ZM137.38 21.328C136.404 21.328 135.724 21.52 135.34 21.904C134.972 22.288 134.788 22.984 134.788 23.992H139.804V23.488C139.788 22.672 139.604 22.112 139.252 21.808C138.9 21.488 138.276 21.328 137.38 21.328ZM158.898 15.952V18.544H154.338V31H151.458V18.544H146.922V15.952H158.898ZM160.898 32.464C161.49 32.464 161.93 32.352 162.218 32.128C162.506 31.92 162.754 31.472 162.962 30.784L158.306 19.144H161.426L164.378 28.048L167.186 19.144H170.186L165.65 31.528C165.202 32.744 164.65 33.608 163.994 34.12C163.354 34.632 162.506 34.888 161.45 34.888C161.13 34.888 160.802 34.872 160.466 34.84C160.13 34.808 159.834 34.768 159.578 34.72V32.392C159.706 32.424 159.858 32.44 160.034 32.44C160.21 32.456 160.498 32.464 160.898 32.464ZM174.409 34.648H171.625V19.144H174.049L174.217 20.224H174.337C174.785 19.792 175.321 19.464 175.945 19.24C176.569 19.016 177.273 18.904 178.057 18.904C179.657 18.904 180.793 19.384 181.465 20.344C182.153 21.288 182.497 22.856 182.497 25.048C182.497 27.224 182.073 28.8 181.225 29.776C180.377 30.736 178.985 31.216 177.049 31.216C176.505 31.216 176.009 31.176 175.561 31.096C175.113 31.032 174.729 30.936 174.409 30.808V34.648ZM179.713 25.048C179.713 23.656 179.529 22.704 179.161 22.192C178.809 21.664 178.113 21.4 177.073 21.4C176.577 21.4 176.105 21.456 175.657 21.568C175.209 21.68 174.793 21.84 174.409 22.048V28.24C174.697 28.368 175.025 28.464 175.393 28.528C175.777 28.592 176.209 28.624 176.689 28.624C177.921 28.624 178.729 28.384 179.113 27.904C179.513 27.408 179.713 26.456 179.713 25.048ZM193.969 28.096V30.352C193.569 30.592 192.937 30.8 192.073 30.976C191.225 31.136 190.337 31.216 189.409 31.216C187.521 31.216 186.161 30.736 185.329 29.776C184.513 28.816 184.105 27.232 184.105 25.024C184.105 22.896 184.537 21.344 185.401 20.368C186.265 19.392 187.633 18.904 189.505 18.904C191.313 18.904 192.593 19.28 193.345 20.032C194.097 20.784 194.473 22.072 194.473 23.896C194.473 24.232 194.465 24.544 194.449 24.832C194.433 25.104 194.401 25.488 194.353 25.984H186.913C186.929 26.976 187.145 27.672 187.561 28.072C187.993 28.472 188.753 28.672 189.841 28.672C190.561 28.672 191.305 28.616 192.073 28.504C192.841 28.392 193.473 28.256 193.969 28.096ZM189.505 21.328C188.529 21.328 187.849 21.52 187.465 21.904C187.097 22.288 186.913 22.984 186.913 23.992H191.929V23.488C191.913 22.672 191.729 22.112 191.377 21.808C191.025 21.488 190.401 21.328 189.505 21.328Z" fill="#0B081C"/>
</svg>
